HIERARCHY
ROOT Hips
{
  OFFSET -323.466 92.5434 539.429
  CHANNELS 6 Xposition Yposition Zposition Zrotation Xrotation Yrotation
  JOINT Spine
  {
    OFFSET -1.59122e-05 8 3.30762e-05
    CHANNELS 6 Xposition Yposition Zposition Zrotation Xrotation Yrotation
    JOINT Spine1
    {
      OFFSET 1.83507e-05 8 0
      CHANNELS 6 Xposition Yposition Zposition Zrotation Xrotation Yrotation
      JOINT Spine2
      {
        OFFSET 0 8 -4.35226e-05
        CHANNELS 6 Xposition Yposition Zposition Zrotation Xrotation Yrotation
        JOINT Spine3
        {
          OFFSET 0 8 0
          CHANNELS 6 Xposition Yposition Zposition Zrotation Xrotation Yrotation
          JOINT Neck
          {
            OFFSET 6.99156e-05 17.0003 -0.000165631
            CHANNELS 6 Xposition Yposition Zposition Zrotation Xrotation Yrotation
            JOINT Head
            {
              OFFSET 6.30371e-05 10.8 0
              CHANNELS 6 Xposition Yposition Zposition Zrotation Xrotation Yrotation
              End Site
              {
                OFFSET 0 20.25 0
              }
            }
          }
          JOINT LeftShoulder
          {
            OFFSET 5 17 -1.82761e-05
            CHANNELS 6 Xposition Yposition Zposition Zrotation Xrotation Yrotation
            JOINT LeftShoulder2
            {
              OFFSET 6.45 0 0
              CHANNELS 6 Xposition Yposition Zposition Zrotation Xrotation Yrotation
              JOINT LeftArm
              {
                OFFSET 6.45 0 1.59567e-05
                CHANNELS 6 Xposition Yposition Zposition Zrotation Xrotation Yrotation
                JOINT LeftForeArm
                {
                  OFFSET 0 -32.4 -2
                  CHANNELS 6 Xposition Yposition Zposition Zrotation Xrotation Yrotation
                  JOINT LeftHand
                  {
                    OFFSET 0 -25.65 2
                    CHANNELS 6 Xposition Yposition Zposition Zrotation Xrotation Yrotation
                    JOINT LeftHandThumb1
                    {
                      OFFSET -0.499983 -1.50002 2.65001
                      CHANNELS 6 Xposition Yposition Zposition Zrotation Xrotation Yrotation
                      JOINT LeftHandThumb2
                      {
                        OFFSET 1.74135e-05 -3.80002 3.69996
                        CHANNELS 6 Xposition Yposition Zposition Zrotation Xrotation Yrotation
                        JOINT LeftHandThumb3
                        {
                          OFFSET -1.59529e-05 -2.99998 2.70002
                          CHANNELS 6 Xposition Yposition Zposition Zrotation Xrotation Yrotation
                          End Site
                          {
                            OFFSET 0 -2.30006 1.79999
                          }
                        }
                      }
                    }
                    JOINT LeftHandIndex
                    {
                      OFFSET 2.15175e-05 -1.9 1.6
                      CHANNELS 6 Xposition Yposition Zposition Zrotation Xrotation Yrotation
                      JOINT LeftHandIndex1
                      {
                        OFFSET 0 -8.30004 1.90001
                        CHANNELS 6 Xposition Yposition Zposition Zrotation Xrotation Yrotation
                        JOINT LeftHandIndex2
                        {
                          OFFSET -2.26524e-05 -4.49998 0
                          CHANNELS 6 Xposition Yposition Zposition Zrotation Xrotation Yrotation
                          JOINT LeftHandIndex3
                          {
                            OFFSET 0 -3.40001 0
                            CHANNELS 6 Xposition Yposition Zposition Zrotation Xrotation Yrotation
                            End Site
                            {
                              OFFSET 0 -2.59998 0
                            }
                          }
                        }
                      }
                    }
                    JOINT LeftHandMiddle
                    {
                      OFFSET -0.249988 -2.20367 0.400014
                      CHANNELS 6 Xposition Yposition Zposition Zrotation Xrotation Yrotation
                      JOINT LeftHandMiddle1
                      {
                        OFFSET 0 -8.30005 0.999982
                        CHANNELS 6 Xposition Yposition Zposition Zrotation Xrotation Yrotation
                        JOINT LeftHandMiddle2
                        {
                          OFFSET 1.42268e-05 -4.65001 0
                          CHANNELS 6 Xposition Yposition Zposition Zrotation Xrotation Yrotation
                          JOINT LeftHandMiddle3
                          {
                            OFFSET -3.69325e-05 -3.29997 1.43435e-05
                            CHANNELS 6 Xposition Yposition Zposition Zrotation Xrotation Yrotation
                            End Site
                            {
                              OFFSET 2.10748e-05 -2.70001 0
                            }
                          }
                        }
                      }
                    }
                    JOINT LeftHandRing
                    {
                      OFFSET -0.499962 -2.15005 -0.800021
                      CHANNELS 6 Xposition Yposition Zposition Zrotation Xrotation Yrotation
                      JOINT LeftHandRing1
                      {
                        OFFSET -2.35587e-05 -7.74997 -0.199968
                        CHANNELS 6 Xposition Yposition Zposition Zrotation Xrotation Yrotation
                        JOINT LeftHandRing2
                        {
                          OFFSET 1.66266e-05 -3.80004 -6.468e-05
                          CHANNELS 6 Xposition Yposition Zposition Zrotation Xrotation Yrotation
                          JOINT LeftHandRing3
                          {
                            OFFSET -1.11664e-05 -3.39996 6.01801e-05
                            CHANNELS 6 Xposition Yposition Zposition Zrotation Xrotation Yrotation
                            End Site
                            {
                              OFFSET -2.59652e-05 -2.59998 0
                            }
                          }
                        }
                      }
                    }
                    JOINT LeftHandPinky
                    {
                      OFFSET -0.749988 -1.75005 -1.84998
                      CHANNELS 6 Xposition Yposition Zposition Zrotation Xrotation Yrotation
                      JOINT LeftHandPinky1
                      {
                        OFFSET 0 -7.15002 -1.00001
                        CHANNELS 6 Xposition Yposition Zposition Zrotation Xrotation Yrotation
                        JOINT LeftHandPinky2
                        {
                          OFFSET 0 -3.00002 0.0011692
                          CHANNELS 6 Xposition Yposition Zposition Zrotation Xrotation Yrotation
                          JOINT LeftHandPinky3
                          {
                            OFFSET 0 -2.35002 0
                            CHANNELS 6 Xposition Yposition Zposition Zrotation Xrotation Yrotation
                            End Site
                            {
                              OFFSET -1.91749e-05 -2.1 0
                            }
                          }
                        }
                      }
                    }
                  }
                }
              }
            }
          }
          JOINT RightShoulder
          {
            OFFSET -5.00003 17 -3.35753e-05
            CHANNELS 6 Xposition Yposition Zposition Zrotation Xrotation Yrotation
            JOINT RightShoulder2
            {
              OFFSET -6.45 0 0
              CHANNELS 6 Xposition Yposition Zposition Zrotation Xrotation Yrotation
              JOINT RightArm
              {
                OFFSET -6.45 0 0
                CHANNELS 6 Xposition Yposition Zposition Zrotation Xrotation Yrotation
                JOINT RightForeArm
                {
                  OFFSET 4.6966e-05 -32.4 -1.99997
                  CHANNELS 6 Xposition Yposition Zposition Zrotation Xrotation Yrotation
                  JOINT RightHand
                  {
                    OFFSET 0 -25.65 2
                    CHANNELS 6 Xposition Yposition Zposition Zrotation Xrotation Yrotation
                    JOINT RightHandThumb1
                    {
                      OFFSET 0.500035 -1.49999 2.65001
                      CHANNELS 6 Xposition Yposition Zposition Zrotation Xrotation Yrotation
                      JOINT RightHandThumb2
                      {
                        OFFSET -2.43408e-05 -3.8 3.69999
                        CHANNELS 6 Xposition Yposition Zposition Zrotation Xrotation Yrotation
                        JOINT RightHandThumb3
                        {
                          OFFSET 0 -2.99999 2.69995
                          CHANNELS 6 Xposition Yposition Zposition Zrotation Xrotation Yrotation
                          End Site
                          {
                            OFFSET 2.32788e-05 -2.3 1.80002
                          }
                        }
                      }
                    }
                    JOINT RightHandIndex
                    {
                      OFFSET 1.21768e-05 -1.89995 1.59998
                      CHANNELS 6 Xposition Yposition Zposition Zrotation Xrotation Yrotation
                      JOINT RightHandIndex1
                      {
                        OFFSET 2.19317e-05 -8.30006 1.90003
                        CHANNELS 6 Xposition Yposition Zposition Zrotation Xrotation Yrotation
                        JOINT RightHandIndex2
                        {
                          OFFSET -1.78489e-05 -4.50003 -2.72835e-05
                          CHANNELS 6 Xposition Yposition Zposition Zrotation Xrotation Yrotation
                          JOINT RightHandIndex3
                          {
                            OFFSET 3.62719e-05 -3.39996 0
                            CHANNELS 6 Xposition Yposition Zposition Zrotation Xrotation Yrotation
                            End Site
                            {
                              OFFSET 0 -2.60004 0
                            }
                          }
                        }
                      }
                    }
                    JOINT RightHandMiddle
                    {
                      OFFSET 0.250023 -2.19998 0.399991
                      CHANNELS 6 Xposition Yposition Zposition Zrotation Xrotation Yrotation
                      JOINT RightHandMiddle1
                      {
                        OFFSET -1.76338e-05 -8.29999 0.999992
                        CHANNELS 6 Xposition Yposition Zposition Zrotation Xrotation Yrotation
                        JOINT RightHandMiddle2
                        {
                          OFFSET 0 -4.65002 0
                          CHANNELS 6 Xposition Yposition Zposition Zrotation Xrotation Yrotation
                          JOINT RightHandMiddle3
                          {
                            OFFSET 1.02685e-05 -3.30001 0
                            CHANNELS 6 Xposition Yposition Zposition Zrotation Xrotation Yrotation
                            End Site
                            {
                              OFFSET 0 -2.70001 1.06069e-05
                            }
                          }
                        }
                      }
                    }
                    JOINT RightHandRing
                    {
                      OFFSET 0.500039 -2.15205 -0.799974
                      CHANNELS 6 Xposition Yposition Zposition Zrotation Xrotation Yrotation
                      JOINT RightHandRing1
                      {
                        OFFSET -4.08412e-05 -7.74998 -0.200043
                        CHANNELS 6 Xposition Yposition Zposition Zrotation Xrotation Yrotation
                        JOINT RightHandRing2
                        {
                          OFFSET 0 -3.80001 0
                          CHANNELS 6 Xposition Yposition Zposition Zrotation Xrotation Yrotation
                          JOINT RightHandRing3
                          {
                            OFFSET 2.27517e-05 -3.39998 0
                            CHANNELS 6 Xposition Yposition Zposition Zrotation Xrotation Yrotation
                            End Site
                            {
                              OFFSET 0 -2.60001 0
                            }
                          }
                        }
                      }
                    }
                    JOINT RightHandPinky
                    {
                      OFFSET 0.75002 -1.74999 -1.84999
                      CHANNELS 6 Xposition Yposition Zposition Zrotation Xrotation Yrotation
                      JOINT RightHandPinky1
                      {
                        OFFSET -1.24973e-05 -7.15401 -1.00002
                        CHANNELS 6 Xposition Yposition Zposition Zrotation Xrotation Yrotation
                        JOINT RightHandPinky2
                        {
                          OFFSET 0 -2.99997 1.15542e-05
                          CHANNELS 6 Xposition Yposition Zposition Zrotation Xrotation Yrotation
                          JOINT RightHandPinky3
                          {
                            OFFSET 1.38604e-05 -2.34998 -2.87097e-05
                            CHANNELS 6 Xposition Yposition Zposition Zrotation Xrotation Yrotation
                            End Site
                            {
                              OFFSET 0 -2.09999 0
                            }
                          }
                        }
                      }
                    }
                  }
                }
              }
            }
          }
        }
      }
    }
  }
  JOINT LeftUpLeg
  {
    OFFSET 8.00001 0 0
    CHANNELS 6 Xposition Yposition Zposition Zrotation Xrotation Yrotation
    JOINT LeftLeg
    {
      OFFSET 0 -45 -1.00002
      CHANNELS 6 Xposition Yposition Zposition Zrotation Xrotation Yrotation
      JOINT LeftFoot
      {
        OFFSET 1.20578e-05 -41 -2
        CHANNELS 6 Xposition Yposition Zposition Zrotation Xrotation Yrotation
        JOINT LeftToeBase
        {
          OFFSET -6.11208e-05 -7.5 12.5
          CHANNELS 6 Xposition Yposition Zposition Zrotation Xrotation Yrotation
          JOINT LeftFootToe
          {
            OFFSET 0 0 4
            CHANNELS 6 Xposition Yposition Zposition Zrotation Xrotation Yrotation
            End Site
            {
              OFFSET 0 0 0
            }
          }
        }
      }
    }
  }
  JOINT RightUpLeg
  {
    OFFSET -8.00001 0 0
    CHANNELS 6 Xposition Yposition Zposition Zrotation Xrotation Yrotation
    JOINT RightLeg
    {
      OFFSET -2.48597e-05 -45 -1.00001
      CHANNELS 6 Xposition Yposition Zposition Zrotation Xrotation Yrotation
      JOINT RightFoot
      {
        OFFSET 0 -41 -1.99999
        CHANNELS 6 Xposition Yposition Zposition Zrotation Xrotation Yrotation
        JOINT RightToeBase
        {
          OFFSET 0 -7.50001 12.5
          CHANNELS 6 Xposition Yposition Zposition Zrotation Xrotation Yrotation
          JOINT RightFootToe
          {
            OFFSET 0 0 4
            CHANNELS 6 Xposition Yposition Zposition Zrotation Xrotation Yrotation
            End Site
            {
              OFFSET 0 0 0
            }
          }
        }
      }
    }
  }
}
MOTION
Frames:	3
Frame Time:	0.0111111
-313.863 91.5843 543.894 -1.40838 0.932249 114.194 5.68434e-14 8 0 10.9112 15.1399 7.03281 -5.68434e-14 8 -1.13687e-13 0.434273 8.45347 23.0439 -5.68434e-14 8 0 -1.00446 -0.01844 -50.0475 5.68434e-14 8 0 0.641011 4.15343 11.3676 0 17 0 -1.28395 -3.21043 -13.7355 -1.13687e-13 10.8 0 -4.19339 -6.90739 -32.6376 5 17 0 -16.3429 -8.96 15.5111 6.45 0 1.13687e-13 1.51381 -0.0424748 2.9458 6.45 2.84217e-14 0 27.5502 -20.872 6.41489 -2.84217e-14 -32.4 -2 -60.2917 -26.9126 -26.1172 0 -25.65 2 -15.7827 33.6036 -8.5255 -0.5 -1.5 2.65 1.38824 -32.9242 15.4663 0 -3.8 3.7 -0.316373 42.4695 -0.094544 5.68434e-14 -3 2.7 -0.0210864 8.13089 -0.000720277 -1.13687e-13 -1.9 1.6 -1.37935e-32 9.93923e-16 7.95139e-16 0 -8.3 1.9 -12.8695 26.4914 3.53301 0 -4.5 0 -0.00010851 -0.0100034 0.0103016 -5.68434e-14 -3.4 -2.84217e-14 -1.56981e-05 0.00652745 0.0356858 -0.25 -2.2 0.4 -1.37935e-32 9.93923e-16 7.95139e-16 -1.13687e-13 -8.3 1 -54.4748 26.4422 17.1371 0 -4.65 0 -0.00626537 -0.0083586 0.0463664 2.84217e-14 -3.3 -2.84217e-14 -0.00623111 -0.00780213 -0.00557343 -0.5 -2.15 -0.8 -1.37935e-32 9.93923e-16 7.95139e-16 -1.13687e-13 -7.75 -0.2 -62.3085 19.5783 16.9328 -4.26326e-14 -3.8 5.68434e-14 -36.0924 -0.0778199 -0.0249674 5.68434e-14 -3.4 -5.68434e-14 -25.4946 -0.0389048 -0.0289989 -0.75 -1.75 -1.85 -1.37935e-32 9.93923e-16 7.95139e-16 0 -7.15 -1 -84.5039 8.60838 19.8954 0 -3 -2.84217e-14 2.8722e-05 0.0441886 -0.0153348 2.84217e-14 -2.35 -8.52651e-14 8.76402e-06 0.0436539 -0.0149616 -5 17 0 -13.4883 -0.743419 8.84907 -6.45 0 0 -3.42688 1.41632 -1.10774 -6.45 0 -1.13687e-13 -31.5112 -34.9802 -24.0281 0 -32.4 -2 -31.4213 -52.7998 -46.6509 1.13687e-13 -25.65 2 128.194 60.4289 -11.7582 0.5 -1.5 2.65 13.0895 0.259205 7.07177 1.13687e-13 -3.8 3.7 1.31277 1.34045 -0.38377 0 -3 2.7 0.13763 24.0607 -0.13215 5.68434e-14 -1.9 1.6 1.59028e-15 0 3.18055e-15 0 -8.3 1.9 1.76721 3.45119 0.0113105 0 -4.5 0 2.9121e-05 0.00752757 -0.00700471 -1.13687e-13 -3.4 -5.68434e-14 -3.52747e-06 0.0077748 -0.00637412 0.25 -2.2 0.4 1.59028e-15 0 3.18055e-15 -5.68434e-14 -8.3 1 3.52739 1.91465 -0.0071792 5.68434e-14 -4.65 5.68434e-14 0.546502 -0.025205 0.0367047 -1.13687e-13 -3.3 0 0.536118 -0.0238708 0.036129 0.5 -2.15 -0.8 1.59028e-15 0 3.18055e-15 0 -7.75 -0.2 6.89199 -1.00962 0.0855423 0 -3.8 5.68434e-14 0.000169942 0.00639146 0.00192631 -1.13687e-13 -3.4 0 -1.49609e-05 0.00614302 0.0020622 0.75 -1.75 -1.85 1.59028e-15 0 3.18055e-15 -5.68434e-14 -7.15 -1 8.63274 -2.57023 0.206901 0 -3 0 0.000129136 -0.0711111 0.0297671 0 -2.35 5.68434e-14 -1.19736e-05 -0.0690763 0.0301362 8 1.42109e-14 -1.13687e-13 2.33081 -8.10814 9.60813 0 -45 -1 -0.130583 19.5988 -2.71855 5.68434e-14 -41 -2 -3.17618 -14.5264 -16.0164 0 -7.5 12.5 5.46133e-09 -1.05397e-06 -8.32993e-09 5.68434e-14 -3.55271e-15 4 -0.592065 -5.3655 49.8102 -8 0 0 -17.4671 -16 -24.3451 1.13687e-13 -45 -1 -1.83936 47.7688 4.61304 0 -41 -2 2.22791 0.762318 9.57441 5.68434e-14 -7.5 12.5 2.93029e-05 -4.65478 -0.00247627 5.68434e-14 0 4 3.63132 3.28831 15.2977 
-313.513 91.6155 543.868 -1.42773 0.953274 114.739 0 8 0 10.8994 15.1874 7.04304 0 8 0 0.426276 8.43702 23.0484 0 8 0 -1.00911 -0.0264354 -50.0455 5.68434e-14 8 -5.68434e-14 0.637261 4.14734 11.3684 5.68434e-14 17 -5.68434e-14 -1.2369 -3.1644 -13.838 1.13687e-13 10.8 0 -4.07541 -6.81436 -32.877 5 17 0 -16.2898 -8.8382 15.1902 6.45 0 0 1.49478 -0.0140913 2.97252 6.45 4.26326e-14 0 28.1993 -20.231 6.9488 8.52651e-14 -32.4 -2 -61.2793 -27.8558 -29.2388 0 -25.65 2 -12.6834 32.5149 -10.2558 -0.5 -1.5 2.65 1.44582 -31.8222 15.925 0 -3.8 3.7 -0.328403 41.6577 -0.162094 -5.68434e-14 -3 2.7 -0.0206726 7.91572 -0.0171789 0 -1.9 1.6 -2.75869e-32 3.97569e-15 3.97569e-16 0 -8.3 1.9 -13.273 26.8288 3.63793 -5.68434e-14 -4.5 -2.84217e-14 -0.00010851 -0.0100034 0.0103016 -1.13687e-13 -3.4 2.84217e-14 -1.56981e-05 0.00652745 0.0356858 -0.25 -2.2 0.4 -2.75869e-32 3.97569e-15 3.97569e-16 0 -8.3 1 -53.8519 26.4766 17.0334 2.84217e-14 -4.65 -2.84217e-14 -0.00626537 -0.0083586 0.0463664 8.52651e-14 -3.3 -5.68434e-14 -0.00623111 -0.00780213 -0.00557343 -0.5 -2.15 -0.8 -2.75869e-32 3.97569e-15 3.97569e-16 1.13687e-13 -7.75 -0.2 -62.561 19.9209 17.3752 -5.68434e-14 -3.8 -2.84217e-14 -40.8371 -0.0425953 -0.0431479 1.13687e-13 -3.4 0 -28.6113 -0.0105919 -0.0342974 -0.75 -1.75 -1.85 -2.75869e-32 3.97569e-15 3.97569e-16 1.13687e-13 -7.15 -1 -84.6578 8.56084 20.0442 0 -3 -2.84217e-14 2.8722e-05 0.0441886 -0.0153348 -1.42109e-14 -2.35 0 8.76402e-06 0.0436539 -0.0149616 -5 17 0 -13.3535 -0.985648 8.7087 -6.45 -1.42109e-14 -1.13687e-13 -3.40741 1.41887 -1.05569 -6.45 -2.84217e-14 0 -32.3311 -32.8067 -25.3806 5.68434e-14 -32.4 -2 -33.0733 -53.7912 -49.7622 0 -25.65 2 129.822 60.0099 -13.6967 0.5 -1.5 2.65 12.688 0.240576 6.6805 0 -3.8 3.7 1.30029 1.68702 -0.372563 0 -3 2.7 0.14081 23.9353 -0.140641 5.68434e-14 -1.9 1.6 -7.95139e-16 3.18055e-15 -0 -5.68434e-14 -8.3 1.9 2.33698 3.45845 0.00815957 0 -4.5 0 2.9121e-05 0.00752757 -0.00700471 0 -3.4 5.68434e-14 -3.52747e-06 0.0077748 -0.00637412 0.25 -2.2 0.4 -7.95139e-16 3.18055e-15 -0 5.68434e-14 -8.3 1 4.28532 1.88723 -0.0103817 5.68434e-14 -4.65 -5.68434e-14 0.902152 -0.0383668 0.0548356 -1.13687e-13 -3.3 0 0.877332 -0.0359911 0.0537641 0.5 -2.15 -0.8 -7.95139e-16 3.18055e-15 -0 -5.68434e-14 -7.75 -0.2 7.99974 -1.07702 0.0973287 0 -3.8 0 0.000169942 0.00639146 0.00192631 -5.68434e-14 -3.4 0 -1.49609e-05 0.00614302 0.0020622 0.75 -1.75 -1.85 -7.95139e-16 3.18055e-15 -0 0 -7.15 -1 9.92762 -2.67502 0.236851 5.68434e-14 -3 -5.68434e-14 0.000129136 -0.0711111 0.0297671 5.68434e-14 -2.35 0 -1.19736e-05 -0.0690763 0.0301362 8 2.84217e-14 0 2.41709 -7.656 9.42085 -5.68434e-14 -45 -1 -0.133896 18.9829 -2.69971 -5.68434e-14 -41 -2 -2.95709 -13.5332 -16.3213 -5.68434e-14 -7.5 12.5 5.46133e-09 -1.05397e-06 -8.32992e-09 5.68434e-14 -3.55271e-15 4 -0.758884 -6.01456 49.7958 -8 0 0 -18.1933 -16.6822 -24.396 0 -45 -1 -2.00725 48.6165 4.90953 0 -41 -2 2.35834 0.790782 9.73351 1.13687e-13 -7.5 12.5 0.000180387 -1.15754 -0.00246861 0 -2.84217e-14 4 3.28412 0.265961 15.4339 
-313.119 91.6711 543.933 -1.40731 0.917164 115.362 -5.68434e-14 8 0 10.9801 15.2137 7.00848 0 8 1.13687e-13 0.435632 8.42805 23.0389 0 8 0 -1.00538 -0.0313476 -50.0504 5.68434e-14 8 -5.68434e-14 0.640468 4.14229 11.3603 0 17 0 -1.19563 -3.11292 -13.9395 -1.7053e-13 10.8 5.68434e-14 -3.96835 -6.70685 -33.114 5 17 0 -16.2178 -8.70631 14.9348 6.45 0 0 1.47273 0.0121949 3.00248 6.45 2.84217e-14 0 28.7474 -19.6677 7.51042 8.52651e-14 -32.4 -2 -62.2714 -28.8531 -32.3933 5.68434e-14 -25.65 2 -9.41398 31.3295 -12.192 -0.5 -1.5 2.65 1.4655 -30.4386 16.2901 0 -3.8 3.7 -0.350635 40.3222 -0.240576 -5.68434e-14 -3 2.7 -0.0231994 7.60727 -0.0461797 1.13687e-13 -1.9 1.6 6.36111e-15 6.55989e-15 -0 -1.13687e-13 -8.3 1.9 -13.2174 26.7929 3.57797 0 -4.5 2.84217e-14 -0.00010851 -0.0100034 0.0103016 1.13687e-13 -3.4 -5.68434e-14 -1.56981e-05 0.00652745 0.0356858 -0.25 -2.2 0.4 6.36111e-15 6.55989e-15 -0 0 -8.3 1 -52.7364 26.6529 16.767 0 -4.65 2.84217e-14 -0.00626537 -0.0083586 0.0463664 0 -3.3 2.84217e-14 -0.00623111 -0.00780213 -0.00557343 -0.5 -2.15 -0.8 6.36111e-15 6.55989e-15 -0 0 -7.75 -0.2 -62.2338 20.3593 17.6206 -2.84217e-14 -3.8 2.84217e-14 -44.0453 -0.0199596 -0.0491975 2.84217e-14 -3.4 8.52651e-14 -30.6988 0.00502212 -0.0338761 -0.75 -1.75 -1.85 6.36111e-15 6.55989e-15 -0 1.13687e-13 -7.15 -1 -84.5034 8.76789 20.1895 -1.42109e-14 -3 -8.52651e-14 2.8722e-05 0.0441886 -0.0153348 1.42109e-14 -2.35 5.68434e-14 8.76402e-06 0.0436539 -0.0149616 -5 17 0 -13.2139 -1.17014 8.59085 -6.45 0 0 -3.38511 1.41262 -1.00335 -6.45 2.84217e-14 1.13687e-13 -33.1129 -30.5484 -26.7434 -5.68434e-14 -32.4 -2 -34.8183 -54.7049 -52.877 1.13687e-13 -25.65 2 130.79 59.4269 -15.1172 0.5 -1.5 2.65 12.1333 0.225262 6.30252 0 -3.8 3.7 1.28556 2.00143 -0.383808 0 -3 2.7 0.139529 23.8225 -0.138193 0 -1.9 1.6 -4.77083e-15 -9.54166e-15 3.18055e-15 -5.68434e-14 -8.3 1.9 3.0452 3.53879 -0.0184149 1.13687e-13 -4.5 5.68434e-14 2.9121e-05 0.00752757 -0.00700471 -1.13687e-13 -3.4 1.13687e-13 -3.52747e-06 0.0077748 -0.00637412 0.25 -2.2 0.4 -4.77083e-15 -9.54166e-15 3.18055e-15 0 -8.3 1 5.1389 1.95288 -0.0417055 5.68434e-14 -4.65 0 1.47775 -0.0483014 0.0695249 -1.13687e-13 -3.3 0 1.41104 -0.0440857 0.0673837 0.5 -2.15 -0.8 -4.77083e-15 -9.54166e-15 3.18055e-15 0 -7.75 -0.2 9.13219 -1.00916 0.0657637 -5.68434e-14 -3.8 -5.68434e-14 0.000169942 0.00639146 0.00192631 -5.68434e-14 -3.4 -1.13687e-13 -1.49609e-05 0.00614302 0.0020622 0.75 -1.75 -1.85 -4.77083e-15 -9.54166e-15 3.18055e-15 0 -7.15 -1 11.206 -2.626 0.21332 0 -3 5.68434e-14 0.000129136 -0.0711111 0.0297671 5.68434e-14 -2.35 0 -1.19736e-05 -0.0690763 0.0301362 8 4.26326e-14 0 2.60064 -7.18357 9.19834 -5.68434e-14 -45 -1 -0.135435 18.3011 -2.68728 -5.68434e-14 -41 -2 -2.88866 -12.6743 -16.6635 0 -7.5 12.5 5.46133e-09 -1.05397e-06 -8.32992e-09 5.68434e-14 0 4 -0.844369 -6.51387 49.7905 -8 0 0 -18.6072 -17.3539 -24.1834 0 -45 -1 -2.09642 49.0767 5.08009 1.13687e-13 -41 -2 2.52489 0.776361 9.70743 -5.68434e-14 -7.5 12.5 0.000256781 0.615711 -0.00246825 0 5.68434e-14 4 2.91373 0.137066 15.3581 
